<svg width="94" height="113" viewBox="0 0 94 113" fill="none" xmlns="http://www.w3.org/2000/svg">
<path d="M64.9304 0.923537C71.3734 5.02563 76.971 10.3286 81.4198 16.5481C85.9983 22.949 89.2703 30.1955 91.0489 37.8737C92.8275 45.552 93.0778 53.5117 91.7854 61.2984C90.4929 69.0852 87.6831 76.5463 83.5162 83.2558C79.3494 89.9653 73.9072 95.7916 67.5004 100.402C61.0937 105.013 53.8479 108.317 46.1769 110.127C38.506 111.936 30.56 112.216 22.7927 110.95C15.2455 109.719 8.01055 107.053 1.47727 103.096L17.0808 77.9712C20.3281 79.89 23.907 81.1874 27.6356 81.7953C31.5844 82.4391 35.6237 82.2969 39.523 81.377C43.4222 80.4571 47.105 78.7775 50.3612 76.4343C53.6173 74.091 56.3831 71.13 58.5007 67.7202C60.6184 64.3104 62.0464 60.5185 62.7032 56.561C63.3601 52.6035 63.2329 48.5578 62.3289 44.6548C61.4248 40.7519 59.7615 37.0681 57.4339 33.814C55.236 30.7413 52.4865 28.1085 49.3269 26.0484L64.9304 0.923537Z" fill="white" stroke="#A8CCCC" stroke-width="1.33704"/>
</svg>
