<svg width="20" height="20" viewBox="0 0 20 20" fill="none" xmlns="http://www.w3.org/2000/svg">
<g id="vuesax/linear/money">
<path id="Vector" d="M14.1665 17.0834H5.83317C3.33317 17.0834 1.6665 15.8334 1.6665 12.9167V7.08341C1.6665 4.16675 3.33317 2.91675 5.83317 2.91675H14.1665C16.6665 2.91675 18.3332 4.16675 18.3332 7.08341V12.9167C18.3332 15.8334 16.6665 17.0834 14.1665 17.0834Z" stroke="#008080" stroke-width="1.5" stroke-miterlimit="10" stroke-linecap="round" stroke-linejoin="round"/>
<path id="Vector_2" d="M10 12.5C11.3807 12.5 12.5 11.3807 12.5 10C12.5 8.61929 11.3807 7.5 10 7.5C8.61929 7.5 7.5 8.61929 7.5 10C7.5 11.3807 8.61929 12.5 10 12.5Z" stroke="#008080" stroke-width="1.5" stroke-miterlimit="10" stroke-linecap="round" stroke-linejoin="round"/>
<path id="Vector_3" d="M4.5835 7.91675V12.0834" stroke="#008080" stroke-width="1.5" stroke-miterlimit="10" stroke-linecap="round" stroke-linejoin="round"/>
<path id="Vector_4" d="M15.4165 7.91675V12.0834" stroke="#008080" stroke-width="1.5" stroke-miterlimit="10" stroke-linecap="round" stroke-linejoin="round"/>
</g>
</svg>
