<svg width="24" height="24" viewBox="0 0 24 24" fill="none" xmlns="http://www.w3.org/2000/svg">
<g id="vuesax/linear/video-play">
<g id="video-play">
<path id="Vector" d="M22 15V9C22 4 20 2 15 2H9C4 2 2 4 2 9V15C2 20 4 22 9 22H15C20 22 22 20 22 15Z" stroke="#484848" stroke-width="1.5" stroke-linecap="round" stroke-linejoin="round"/>
<path id="Vector_2" d="M2.51953 7.11011H21.4795" stroke="#484848" stroke-width="1.5" stroke-linecap="round" stroke-linejoin="round"/>
<path id="Vector_3" d="M8.51953 2.11011V6.97011" stroke="#484848" stroke-width="1.5" stroke-linecap="round" stroke-linejoin="round"/>
<path id="Vector_4" d="M15.4805 2.11011V6.52011" stroke="#484848" stroke-width="1.5" stroke-linecap="round" stroke-linejoin="round"/>
<path id="Vector_5" d="M9.75 14.4501V13.2501C9.75 11.7101 10.84 11.0801 12.17 11.8501L13.21 12.4501L14.25 13.0501C15.58 13.8201 15.58 15.0801 14.25 15.8501L13.21 16.4501L12.17 17.0501C10.84 17.8201 9.75 17.1901 9.75 15.6501V14.4501V14.4501Z" stroke="#484848" stroke-width="1.5" stroke-miterlimit="10" stroke-linecap="round" stroke-linejoin="round"/>
</g>
</g>
</svg>
