<svg width="32" height="32" viewBox="0 0 32 32" fill="none" xmlns="http://www.w3.org/2000/svg">
<g clip-path="url(#clip0_848_6373)">
<path d="M27.2 0H4.8C2.14903 0 0 2.14903 0 4.8V27.2C0 29.851 2.14903 32 4.8 32H27.2C29.851 32 32 29.851 32 27.2V4.8C32 2.14903 29.851 0 27.2 0Z" fill="#25D366"/>
<path d="M7.6876 24.5624L8.5626 20.4999C7.43797 18.7261 6.99924 16.6028 7.32875 14.5285C7.65825 12.4542 8.73332 10.5714 10.3523 9.23335C11.9712 7.89531 14.0228 7.194 16.122 7.26098C18.2213 7.32797 20.2239 8.15865 21.7543 9.59718C23.2846 11.0357 24.2375 12.9832 24.4341 15.0743C24.6307 17.1654 24.0575 19.2564 22.822 20.9549C21.5866 22.6535 19.7738 23.8428 17.7239 24.2999C15.6739 24.757 13.5276 24.4503 11.6876 23.4374L7.6876 24.5624Z" fill="#25D366" stroke="white" stroke-width="2.51169"/>
<path d="M19.25 17.0626C19.0625 16.9376 18.875 16.8751 18.6875 17.1251L17.9375 18.1251C17.75 18.2501 17.625 18.3126 17.375 18.1876C16.4375 17.6876 15.125 17.1251 14 15.2501C13.9375 15.0001 14.0625 14.8751 14.1875 14.7501L14.75 13.8751C14.875 13.7501 14.8125 13.6251 14.75 13.5001L14 11.6876C13.8125 11.1876 13.625 11.2501 13.4375 11.2501H12.9375C12.8125 11.2501 12.5625 11.3126 12.3125 11.5626C10.9375 12.9376 11.5 14.8751 12.5 16.1251C12.6875 16.3751 13.9375 18.6251 16.625 19.8126C18.625 20.6876 19.0625 20.5626 19.625 20.4376C20.3125 20.3751 21 19.8126 21.3125 19.2501C21.375 19.0626 21.6875 18.2501 21.4375 18.1251" fill="white"/>
</g>
<defs>
<clipPath id="clip0_848_6373">
<rect width="32" height="32" rx="8" fill="white"/>
</clipPath>
</defs>
</svg>
