<svg width="28" height="28" viewBox="0 0 28 28" fill="none" xmlns="http://www.w3.org/2000/svg">
<path fill-rule="evenodd" clip-rule="evenodd" d="M3.22033 0.00174404C10.3794 -0.00289531 17.5387 0.00174404 24.6978 0.0153892C26.3074 0.215154 27.3673 1.0838 27.8771 2.62161C27.9312 2.81837 27.9675 3.01869 27.9863 3.222C28.0046 10.4083 28.0046 17.595 27.9863 24.7813C27.6823 26.6136 26.6133 27.6826 24.7797 27.9879C17.5933 28.0062 10.4067 28.0062 3.22033 27.9879C1.88119 27.8032 0.912383 27.1073 0.313907 25.9002C0.153986 25.5149 0.0538301 25.1148 0.0137134 24.6995C-0.00457113 17.5404 -0.00457113 10.3811 0.0137134 3.222C0.171724 2.00076 0.776751 1.07725 1.82852 0.452034C2.26844 0.215973 2.73237 0.0658762 3.22033 0.00174404Z" fill="#008080"/>
<path fill-rule="evenodd" clip-rule="evenodd" d="M13.9706 4.06836C17.673 10.6647 21.3662 17.2689 25.0504 23.8811C25.0414 23.8901 25.0321 23.8994 25.0231 23.9084C21.3365 22.0832 17.643 20.2731 13.9433 18.4776C10.2686 20.2832 6.59343 22.0797 2.91797 23.8675C6.60926 17.2703 10.2935 10.6707 13.9706 4.06836Z" fill="#FEFEFE"/>
<path fill-rule="evenodd" clip-rule="evenodd" d="M13.976 8.08008C16.0951 11.8265 18.2008 15.5835 20.2937 19.351C20.3125 19.3736 20.3079 19.3919 20.2801 19.4056C18.1724 18.3723 16.0667 17.3353 13.9623 16.2945C11.8812 17.3099 9.80248 18.3289 7.72651 19.351C7.7175 19.342 7.70822 19.3327 7.69922 19.3237C9.79184 15.5751 11.8842 11.8273 13.976 8.08008Z" fill="#008080"/>
</svg>
