<svg width="105" height="106" viewBox="0 0 105 106" fill="none" xmlns="http://www.w3.org/2000/svg">
<rect x="1.25" y="1.55591" width="102.5" height="102.5" rx="51.25" stroke="white" stroke-width="2"/>
<path d="M63.5003 43.5292C63.3853 43.51 63.2511 43.51 63.1361 43.5292C60.4911 43.4333 58.3828 41.2675 58.3828 38.5842C58.3828 35.8433 60.587 33.6392 63.3278 33.6392C66.0686 33.6392 68.2728 35.8625 68.2728 38.5842C68.2536 41.2675 66.1453 43.4333 63.5003 43.5292Z" stroke="white" stroke-width="2.125" stroke-linecap="round" stroke-linejoin="round"/>
<path d="M61.5263 57.4821C64.1521 57.9229 67.0463 57.4629 69.0779 56.1021C71.7804 54.3004 71.7804 51.3487 69.0779 49.5471C67.0271 48.1862 64.0946 47.7262 61.4688 48.1862" stroke="white" stroke-width="2.125" stroke-linecap="round" stroke-linejoin="round"/>
<path d="M40.4405 43.5292C40.5555 43.51 40.6896 43.51 40.8046 43.5292C43.4496 43.4333 45.558 41.2675 45.558 38.5842C45.558 35.8433 43.3538 33.6392 40.613 33.6392C37.8721 33.6392 35.668 35.8625 35.668 38.5842C35.6871 41.2675 37.7955 43.4333 40.4405 43.5292Z" stroke="white" stroke-width="2.125" stroke-linecap="round" stroke-linejoin="round"/>
<path d="M42.4145 57.4821C39.7886 57.9229 36.8945 57.4629 34.8628 56.1021C32.1603 54.3004 32.1603 51.3487 34.8628 49.5471C36.9136 48.1862 39.8461 47.7262 42.472 48.1862" stroke="white" stroke-width="2.125" stroke-linecap="round" stroke-linejoin="round"/>
<path d="M52.0003 57.8466C51.8853 57.8274 51.7511 57.8274 51.6361 57.8466C48.9911 57.7507 46.8828 55.5849 46.8828 52.9015C46.8828 50.1607 49.087 47.9565 51.8278 47.9565C54.5686 47.9565 56.7728 50.1799 56.7728 52.9015C56.7536 55.5849 54.6453 57.7699 52.0003 57.8466Z" stroke="white" stroke-width="2.125" stroke-linecap="round" stroke-linejoin="round"/>
<path d="M46.4214 63.8836C43.7189 65.6853 43.7189 68.6369 46.4214 70.4386C49.4881 72.4894 54.5097 72.4894 57.5764 70.4386C60.2789 68.6369 60.2789 65.6853 57.5764 63.8836C54.5289 61.8519 49.4881 61.8519 46.4214 63.8836Z" stroke="white" stroke-width="2.125" stroke-linecap="round" stroke-linejoin="round"/>
</svg>
