<svg width="105" height="106" viewBox="0 0 105 106" fill="none" xmlns="http://www.w3.org/2000/svg">
<rect x="1.25" y="1.55591" width="102.5" height="102.5" rx="51.25" stroke="white" stroke-width="2"/>
<path d="M47.7109 56.161C47.7109 58.0202 49.1485 59.5152 50.9118 59.5152H54.5151C56.0484 59.5152 57.2943 58.2118 57.2943 56.5827C57.2943 54.8385 56.5276 54.206 55.3968 53.8035L49.6276 51.791C48.4968 51.3885 47.7301 50.7752 47.7301 49.0118C47.7301 47.4018 48.9759 46.0793 50.5093 46.0793H54.1126C55.8759 46.0793 57.3135 47.5743 57.3135 49.4335" stroke="white" stroke-width="2.125" stroke-linecap="round" stroke-linejoin="round"/>
<path d="M52.5039 44.1812V61.4312" stroke="white" stroke-width="2.125" stroke-linecap="round" stroke-linejoin="round"/>
<path d="M71.6654 52.8061C71.6654 63.3861 63.0787 71.9727 52.4987 71.9727C41.9187 71.9727 33.332 63.3861 33.332 52.8061C33.332 42.2261 41.9187 33.6394 52.4987 33.6394" stroke="white" stroke-width="2.125" stroke-linecap="round" stroke-linejoin="round"/>
<path d="M62.082 35.5557V43.2223H69.7487" stroke="white" stroke-width="2.125" stroke-linecap="round" stroke-linejoin="round"/>
<path d="M71.6654 33.6394L62.082 43.2227" stroke="white" stroke-width="2.125" stroke-linecap="round" stroke-linejoin="round"/>
</svg>
