<svg width="105" height="106" viewBox="0 0 105 106" fill="none" xmlns="http://www.w3.org/2000/svg">
<rect x="1.25" y="1.55591" width="102.5" height="102.5" rx="51.25" stroke="white" stroke-width="2"/>
<path d="M52.0013 52.8061C57.294 52.8061 61.5846 48.5155 61.5846 43.2227C61.5846 37.93 57.294 33.6394 52.0013 33.6394C46.7086 33.6394 42.418 37.93 42.418 43.2227C42.418 48.5155 46.7086 52.8061 52.0013 52.8061Z" stroke="white" stroke-width="2.125" stroke-linecap="round" stroke-linejoin="round"/>
<path d="M35.5352 71.9723C35.5352 64.5548 42.9143 58.5557 51.9993 58.5557C53.8393 58.5557 55.6218 58.8048 57.2893 59.2648" stroke="white" stroke-width="2.125" stroke-linecap="round" stroke-linejoin="round"/>
<path d="M71.1654 64.3058C71.1654 65.7433 70.7629 67.1042 70.0537 68.2542C69.6512 68.9442 69.1337 69.5575 68.5395 70.0558C67.1979 71.2633 65.4345 71.9725 63.4987 71.9725C60.7004 71.9725 58.2662 70.4775 56.9437 68.2542C56.2345 67.1042 55.832 65.7433 55.832 64.3058C55.832 61.8908 56.9437 59.725 58.707 58.3258C60.0295 57.2717 61.697 56.6392 63.4987 56.6392C67.7345 56.6392 71.1654 60.07 71.1654 64.3058Z" stroke="white" stroke-width="2.125" stroke-miterlimit="10" stroke-linecap="round" stroke-linejoin="round"/>
<path d="M60.5078 64.3058L62.4053 66.2033L66.4878 62.4275" stroke="white" stroke-width="2.125" stroke-linecap="round" stroke-linejoin="round"/>
</svg>
