<svg width="105" height="106" viewBox="0 0 105 106" fill="none" xmlns="http://www.w3.org/2000/svg">
<rect x="1.25" y="1.55591" width="102.5" height="102.5" rx="51.25" stroke="white" stroke-width="2"/>
<path d="M65.4154 47.0558C65.4154 49.835 64.5912 52.3842 63.1729 54.5117C61.1029 57.5784 57.8254 59.7442 54.0112 60.3C53.3595 60.415 52.6887 60.4725 51.9987 60.4725C51.3087 60.4725 50.6379 60.415 49.9862 60.3C46.172 59.7442 42.8945 57.5784 40.8245 54.5117C39.4062 52.3842 38.582 49.835 38.582 47.0558C38.582 39.6383 44.5812 33.6392 51.9987 33.6392C59.4162 33.6392 65.4154 39.6383 65.4154 47.0558Z" stroke="white" stroke-width="2" stroke-linecap="round" stroke-linejoin="round"/>
<path d="M69.7283 65.2076L66.5658 65.9551C65.8566 66.1276 65.3008 66.6643 65.1474 67.3734L64.4766 70.1909C64.1124 71.7243 62.1574 72.1843 61.1416 70.9768L51.9991 60.4734L42.8566 70.9959C41.8408 72.2034 39.8858 71.7434 39.5216 70.2101L38.8508 67.3926C38.6783 66.6834 38.1224 66.1276 37.4324 65.9742L34.2699 65.2268C32.8133 64.8818 32.2958 63.0609 33.3499 62.0067L40.8249 54.5317C42.8949 57.5984 46.1724 59.7643 49.9866 60.3201C50.6383 60.4351 51.3091 60.4926 51.9991 60.4926C52.6891 60.4926 53.3599 60.4351 54.0116 60.3201C57.8258 59.7643 61.1033 57.5984 63.1733 54.5317L70.6483 62.0067C71.7024 63.0417 71.1849 64.8626 69.7283 65.2076Z" stroke="white" stroke-width="2" stroke-linecap="round" stroke-linejoin="round"/>
<path d="M53.1128 41.2677L54.2436 43.5293C54.3969 43.836 54.7994 44.1427 55.1636 44.2002L57.2144 44.5451C58.5178 44.756 58.8244 45.7143 57.8853 46.6535L56.2944 48.2443C56.0261 48.5126 55.8728 49.0302 55.9686 49.4135L56.4286 51.3877C56.7928 52.9402 55.9686 53.5535 54.5886 52.7293L52.6719 51.5985C52.3269 51.3876 51.7519 51.3876 51.4069 51.5985L49.4903 52.7293C48.1103 53.5343 47.2861 52.9402 47.6503 51.3877L48.1103 49.4135C48.1869 49.0493 48.0528 48.5126 47.7844 48.2443L46.1936 46.6535C45.2544 45.7143 45.5611 44.7751 46.8644 44.5451L48.9153 44.2002C49.2603 44.1427 49.6628 43.836 49.8161 43.5293L50.9469 41.2677C51.5028 40.041 52.4994 40.041 53.1128 41.2677Z" stroke="white" stroke-width="2" stroke-linecap="round" stroke-linejoin="round"/>
</svg>
