<svg width="142" height="142" viewBox="0 0 142 142" fill="none" xmlns="http://www.w3.org/2000/svg">
<circle cx="71" cy="71" r="68.5" fill="white" stroke="#F3F3F3" stroke-width="5"/>
<path d="M76.4375 80.5254H63.3125" stroke="#008080" stroke-width="3" stroke-miterlimit="10" stroke-linecap="round" stroke-linejoin="round"/>
<path d="M69.875 74.1201V87.2451" stroke="#008080" stroke-width="3" stroke-miterlimit="10" stroke-linecap="round" stroke-linejoin="round"/>
<path d="M72.232 46.6101L72.1533 46.7939L64.5408 64.4601H57.0595C55.2745 64.4601 53.5683 64.8276 52.0195 65.4839L56.6133 54.5114L56.7183 54.2489L56.902 53.8289C56.9545 53.6714 57.007 53.5139 57.0858 53.3826C60.5245 45.4289 64.4095 43.6176 72.232 46.6101Z" stroke="#008080" stroke-width="3" stroke-linecap="round" stroke-linejoin="round"/>
<path d="M86.381 64.9854C85.1998 64.6179 83.9398 64.4604 82.6798 64.4604H64.541L72.1535 46.7941L72.2323 46.6104C72.626 46.7416 72.9935 46.9254 73.3873 47.0829L79.1885 49.5241C82.4173 50.8629 84.6748 52.2541 86.0398 53.9341C86.3023 54.2491 86.5123 54.5379 86.696 54.8791C86.9323 55.2466 87.116 55.6141 87.221 56.0079C87.326 56.2441 87.4048 56.4804 87.4573 56.6904C88.166 58.8954 87.746 61.5991 86.381 64.9854Z" stroke="#008080" stroke-width="3" stroke-linecap="round" stroke-linejoin="round"/>
<path d="M95.493 77.2709V82.3897C95.493 82.9147 95.4668 83.4397 95.4405 83.9647C94.9418 93.1259 89.823 97.7459 80.1105 97.7459H59.6355C59.0055 97.7459 58.3755 97.6934 57.7718 97.6147C49.4243 97.0634 44.9618 92.6009 44.4105 84.2534C44.3318 83.6497 44.2793 83.0197 44.2793 82.3897V77.2709C44.2793 71.9947 47.4818 67.4534 52.0493 65.4847C53.6243 64.8284 55.3043 64.4609 57.0893 64.4609H82.7093C83.9955 64.4609 85.2555 64.6447 86.4105 64.9859C91.6343 66.5872 95.493 71.4697 95.493 77.2709Z" stroke="#008080" stroke-width="3" stroke-linecap="round" stroke-linejoin="round"/>
<path d="M56.6137 54.5107L52.02 65.4832C47.4525 67.452 44.25 71.9932 44.25 77.2695V69.5782C44.25 62.1232 49.5525 55.902 56.6137 54.5107Z" stroke="#008080" stroke-width="3" stroke-linecap="round" stroke-linejoin="round"/>
<path d="M95.4848 69.5771V77.2684C95.4848 71.4934 91.6523 66.5846 86.4023 65.0096C87.7673 61.5971 88.1611 58.9196 87.5048 56.6884C87.4523 56.4521 87.3736 56.2159 87.2686 56.0059C92.1511 58.5259 95.4848 63.6971 95.4848 69.5771Z" stroke="#008080" stroke-width="3" stroke-linecap="round" stroke-linejoin="round"/>
</svg>
