<svg width="142" height="142" viewBox="0 0 142 142" fill="none" xmlns="http://www.w3.org/2000/svg">
<circle cx="71" cy="71" r="68.5" fill="white" stroke="#F3F3F3" stroke-width="5"/>
<path d="M62 70.5L68.3262 76.8525L81.005 64.1475" stroke="#008080" stroke-width="3.9375" stroke-linecap="round" stroke-linejoin="round"/>
<path d="M68.2212 45.4321C70.0325 43.8833 72.9988 43.8833 74.8363 45.4321L78.9838 49.0021C79.7713 49.6846 81.2413 50.2358 82.2913 50.2358H86.7537C89.5362 50.2358 91.82 52.5196 91.82 55.3021V59.7646C91.82 60.7883 92.3712 62.2846 93.0537 63.0721L96.6238 67.2196C98.1725 69.0308 98.1725 71.9971 96.6238 73.8346L93.0537 77.9821C92.3712 78.7696 91.82 80.2396 91.82 81.2896V85.7521C91.82 88.5346 89.5362 90.8183 86.7537 90.8183H82.2913C81.2675 90.8183 79.7713 91.3696 78.9838 92.0521L74.8363 95.6221C73.025 97.1708 70.0587 97.1708 68.2212 95.6221L64.0737 92.0521C63.2862 91.3696 61.8162 90.8183 60.7662 90.8183H56.225C53.4425 90.8183 51.1587 88.5346 51.1587 85.7521V81.2633C51.1587 80.2396 50.6075 78.7696 49.9512 77.9821L46.4075 73.8083C44.885 71.9971 44.885 69.0571 46.4075 67.2458L49.9512 63.0721C50.6075 62.2846 51.1587 60.8146 51.1587 59.7908V55.2758C51.1587 52.4933 53.4425 50.2096 56.225 50.2096H60.7662C61.79 50.2096 63.2862 49.6583 64.0737 48.9758L68.2212 45.4321Z" stroke="#008080" stroke-width="3.9375" stroke-linecap="round" stroke-linejoin="round"/>
</svg>
