<svg width="142" height="142" viewBox="0 0 142 142" fill="none" xmlns="http://www.w3.org/2000/svg">
<circle cx="71" cy="71" r="68.5" fill="white" stroke="#F3F3F3" stroke-width="5"/>
<path d="M89.662 60.7901V74.309C89.662 82.394 85.042 85.8589 78.112 85.8589H55.0383C53.857 85.8589 52.7283 85.754 51.6783 85.5178C51.022 85.4128 50.392 85.229 49.8145 85.019C45.877 83.549 43.4883 80.1365 43.4883 74.309V60.7901C43.4883 52.7051 48.1083 49.2402 55.0383 49.2402H78.112C83.992 49.2402 88.2183 51.734 89.347 57.4302C89.5308 58.4802 89.662 59.5564 89.662 60.7901Z" stroke="#008080" stroke-width="3" stroke-miterlimit="10" stroke-linecap="round" stroke-linejoin="round"/>
<path d="M97.5404 68.6656V82.1844C97.5404 90.2694 92.9204 93.7343 85.9904 93.7343H62.9166C60.9741 93.7343 59.2154 93.4719 57.6929 92.8944C54.5692 91.7394 52.4429 89.3507 51.6816 85.5182C52.7316 85.7544 53.8604 85.8593 55.0416 85.8593H78.1154C85.0454 85.8593 89.6654 82.3944 89.6654 74.3094V60.7906C89.6654 59.5568 89.5604 58.4544 89.3504 57.4307C94.3379 58.4807 97.5404 61.9981 97.5404 68.6656Z" stroke="#008080" stroke-width="3" stroke-miterlimit="10" stroke-linecap="round" stroke-linejoin="round"/>
<path d="M66.5589 74.4919C70.3863 74.4919 73.489 71.3892 73.489 67.5619C73.489 63.7345 70.3863 60.6318 66.5589 60.6318C62.7316 60.6318 59.6289 63.7345 59.6289 67.5619C59.6289 71.3892 62.7316 74.4919 66.5589 74.4919Z" stroke="#008080" stroke-width="3" stroke-miterlimit="10" stroke-linecap="round" stroke-linejoin="round"/>
<path d="M51.5469 61.7871V73.3372" stroke="#008080" stroke-width="3" stroke-miterlimit="10" stroke-linecap="round" stroke-linejoin="round"/>
<path d="M81.582 61.7881V73.3382" stroke="#008080" stroke-width="3" stroke-miterlimit="10" stroke-linecap="round" stroke-linejoin="round"/>
</svg>
