<svg width="41" height="41" viewBox="0 0 41 41" fill="none" xmlns="http://www.w3.org/2000/svg">
<path fill-rule="evenodd" clip-rule="evenodd" d="M5.10046 0.729054C15.3277 0.722426 25.5553 0.729054 35.7826 0.748547C38.082 1.03393 39.5962 2.27485 40.3245 4.47172C40.4017 4.75281 40.4535 5.03897 40.4804 5.32942C40.5065 15.5956 40.5065 25.8622 40.4804 36.1285C40.0461 38.746 38.519 40.2731 35.8995 40.7093C25.6333 40.7354 15.3667 40.7354 5.10046 40.7093C3.18741 40.4454 1.8034 39.4512 0.948438 37.7269C0.719979 37.1764 0.5769 36.6049 0.519591 36.0115C0.49347 25.7843 0.49347 15.5566 0.519591 5.32942C0.74532 3.58479 1.60964 2.2655 3.11217 1.37233C3.74063 1.0351 4.40339 0.820671 5.10046 0.729054Z" fill="#008080"/>
<path fill-rule="evenodd" clip-rule="evenodd" d="M20.4554 6.53711C25.7447 15.9604 31.0207 25.3951 36.2838 34.841C36.271 34.8539 36.2577 34.8671 36.2448 34.88C30.9782 32.2726 25.7018 29.6867 20.4164 27.1218C15.1669 29.7011 9.91668 32.2676 4.66602 34.8215C9.93929 25.397 15.2024 15.969 20.4554 6.53711Z" fill="#FEFEFE"/>
<path fill-rule="evenodd" clip-rule="evenodd" d="M20.4629 12.2695C23.4902 17.6215 26.4984 22.9888 29.4882 28.3708C29.5151 28.4032 29.5085 28.4293 29.4687 28.4488C26.4578 26.9728 23.4496 25.4913 20.4434 24.0044C17.4703 25.455 14.5008 26.9108 11.5351 28.3708C11.5222 28.3579 11.509 28.3447 11.4961 28.3318C14.4856 22.9767 17.4746 17.6227 20.4629 12.2695Z" fill="#008080"/>
</svg>
