<svg width="52" height="53" viewBox="0 0 52 53" fill="none" xmlns="http://www.w3.org/2000/svg">
<rect y="0.806641" width="52" height="52" rx="8" fill="#008080"/>
<path d="M34.5012 19.9487C34.4162 19.9345 34.3171 19.9345 34.2321 19.9487C32.2771 19.8778 30.7188 18.277 30.7188 16.2937C30.7188 14.2678 32.3479 12.6387 34.3737 12.6387C36.3996 12.6387 38.0287 14.282 38.0287 16.2937C38.0146 18.277 36.4562 19.8778 34.5012 19.9487Z" stroke="white" stroke-width="2.125" stroke-linecap="round" stroke-linejoin="round"/>
<path d="M33.0406 30.2622C34.9814 30.5881 37.1206 30.2481 38.6222 29.2422C40.6197 27.9106 40.6197 25.7289 38.6222 24.3972C37.1064 23.3914 34.9389 23.0514 32.998 23.3914" stroke="white" stroke-width="2.125" stroke-linecap="round" stroke-linejoin="round"/>
<path d="M17.4552 19.9487C17.5402 19.9345 17.6394 19.9345 17.7244 19.9487C19.6794 19.8778 21.2377 18.277 21.2377 16.2937C21.2377 14.2678 19.6086 12.6387 17.5827 12.6387C15.5569 12.6387 13.9277 14.282 13.9277 16.2937C13.9419 18.277 15.5002 19.8778 17.4552 19.9487Z" stroke="white" stroke-width="2.125" stroke-linecap="round" stroke-linejoin="round"/>
<path d="M18.9157 30.2622C16.9749 30.5881 14.8357 30.2481 13.3341 29.2422C11.3366 27.9106 11.3366 25.7289 13.3341 24.3972C14.8499 23.3914 17.0174 23.0514 18.9582 23.3914" stroke="white" stroke-width="2.125" stroke-linecap="round" stroke-linejoin="round"/>
<path d="M25.9993 30.5346C25.9143 30.5204 25.8151 30.5204 25.7301 30.5346C23.7751 30.4638 22.2168 28.8629 22.2168 26.8796C22.2168 24.8538 23.846 23.2246 25.8718 23.2246C27.8976 23.2246 29.5268 24.8679 29.5268 26.8796C29.5126 28.8629 27.9543 30.4779 25.9993 30.5346Z" stroke="white" stroke-width="2.125" stroke-linecap="round" stroke-linejoin="round"/>
<path d="M21.877 34.9973C19.8795 36.329 19.8795 38.5107 21.877 39.8423C24.1437 41.3582 27.8554 41.3582 30.122 39.8423C32.1195 38.5107 32.1195 36.329 30.122 34.9973C27.8695 33.4957 24.1437 33.4957 21.877 34.9973Z" stroke="white" stroke-width="2.125" stroke-linecap="round" stroke-linejoin="round"/>
</svg>
