<svg width="150" height="31" viewBox="0 0 150 31" fill="none" xmlns="http://www.w3.org/2000/svg">
<g clip-path="url(#clip0_2878_5206)">
<path d="M17.4 6.35788L8.7 11.9013L17.4 17.4447L8.7 22.9881L0 17.4148L8.7 11.8713L0 6.35788L8.7 0.814453L17.4 6.35788ZM8.655 24.771L17.355 19.2276L26.055 24.771L17.355 30.3145L8.655 24.771ZM17.4 17.4148L26.1 11.8713L17.4 6.35788L26.055 0.814453L34.755 6.35788L26.055 11.9013L34.755 17.4447L26.055 22.9881L17.4 17.4148Z" fill="#8D8B8B"/>
<path d="M41.5801 6.35693H48.6151C53.1001 6.35693 56.8051 8.94886 56.8051 14.8668V16.1104C56.8051 22.0733 53.3401 24.7551 48.7501 24.7551H41.5801V6.35693ZM45.5101 9.69797V21.3991H48.5251C51.0751 21.3991 52.7851 19.7361 52.7851 16.0354V15.0616C52.7851 11.361 50.9851 9.69797 48.3901 9.69797H45.5101ZM58.8901 9.87775H62.0401L62.5501 13.3386C63.1501 10.9864 64.6801 9.72793 67.4551 9.72793H68.4301V13.6982H66.8101C63.6151 13.6982 62.8351 14.8069 62.8351 17.9532V24.8001H58.9501V9.87775H58.8901ZM69.2101 17.6385V17.219C69.2101 12.23 72.4051 9.5032 76.7551 9.5032C81.1951 9.5032 84.3001 12.23 84.3001 17.219V17.6385C84.3001 22.5377 81.2851 25.1746 76.7551 25.1746C71.9401 25.1297 69.2101 22.5527 69.2101 17.6385ZM80.3251 17.5936V17.219C80.3251 14.4473 78.9301 12.7843 76.7101 12.7843C74.5351 12.7843 73.0951 14.3125 73.0951 17.219V17.5936C73.0951 20.2754 74.4901 21.8036 76.7101 21.8036C78.9301 21.7587 80.3251 20.2754 80.3251 17.5936ZM86.3401 9.87775H89.5801L89.9551 12.6944C90.7351 10.8067 92.4001 9.5032 94.8601 9.5032C98.6551 9.5032 101.16 12.23 101.16 17.279V17.6985C101.16 22.5977 98.3851 25.1896 94.8601 25.1896C92.5051 25.1896 90.8851 24.1258 90.0901 22.4179V29.9539H86.2951L86.3401 9.87775ZM97.2151 17.5936V17.264C97.2151 14.2975 95.6851 12.8293 93.6451 12.8293C91.4701 12.8293 90.0301 14.4923 90.0301 17.264V17.5487C90.0301 20.1855 91.4251 21.8486 93.6001 21.8486C95.8351 21.8036 97.2151 20.3803 97.2151 17.5936ZM106.905 22.0433L106.575 24.7701H103.245V4.88867H107.04V12.5146C107.88 10.5669 109.545 9.5032 111.9 9.5032C115.47 9.54814 118.11 12.0052 118.11 16.9494V17.4138C118.11 22.3579 115.605 25.1896 111.81 25.1896C109.305 25.1297 107.685 23.976 106.905 22.0433ZM114.12 17.4138V17.0393C114.12 14.3125 112.635 12.7843 110.55 12.7843C108.42 12.7843 106.935 14.4923 106.935 17.0842V17.4138C106.935 20.1855 108.375 21.8036 110.505 21.8036C112.785 21.8036 114.12 20.3803 114.12 17.4138ZM119.775 17.6385V17.219C119.775 12.23 122.97 9.5032 127.32 9.5032C131.76 9.5032 134.865 12.23 134.865 17.219V17.6385C134.865 22.5377 131.805 25.1746 127.32 25.1746C122.505 25.1297 119.775 22.5527 119.775 17.6385ZM130.92 17.5936V17.219C130.92 14.4473 129.525 12.7843 127.305 12.7843C125.13 12.7843 123.69 14.3125 123.69 17.219V17.5936C123.69 20.2754 125.085 21.8036 127.305 21.8036C129.54 21.7587 130.92 20.2754 130.92 17.5936ZM139.95 17.0393L134.715 9.87775H139.2L142.215 14.3574L145.275 9.87775H149.715L144.405 16.9943L150 24.7701H145.605L142.185 19.8259L138.855 24.7701H134.265L139.95 17.0393Z" fill="#8D8B8B"/>
</g>
<defs>
<clipPath id="clip0_2878_5206">
<rect width="150" height="29.5" fill="white" transform="translate(0 0.814453)"/>
</clipPath>
</defs>
</svg>
