<svg width="150" height="29" viewBox="0 0 150 29" fill="none" xmlns="http://www.w3.org/2000/svg">
<g clip-path="url(#clip0_2878_5212)">
<path d="M19.3057 3.23124C18.5518 2.81276 16.3906 3.07151 13.7949 3.87503C9.2521 6.98031 5.41807 11.5552 5.15052 18.9017C5.10181 19.0773 4.65374 18.8778 4.56512 18.8234C3.33838 16.4721 2.85237 13.9962 3.87667 10.4244C4.06758 10.1066 3.4434 9.71527 3.33117 9.82703C3.10634 10.0522 2.16907 11.0507 1.54657 12.1305C-1.53905 17.4833 0.478807 24.342 5.87729 27.3435C11.2746 30.3498 18.0903 28.4106 21.0956 23.0115C24.5723 16.7799 21.344 4.36967 19.3058 3.23143L19.3057 3.23124Z" fill="#8D8B8B"/>
<path d="M38.6249 6.22266C32.2253 6.22266 27.5801 10.9804 27.5801 17.5357C27.5801 24.1448 32.2132 28.7607 38.8479 28.7607C42.1991 28.7607 44.8523 27.7128 46.9623 25.5556C47.5925 24.8751 47.6603 24.2193 47.6603 23.9686C47.6603 22.9 46.8656 22.1237 45.7707 22.1237C45.2188 22.1237 44.7572 22.3322 44.2277 22.8217C43.0329 23.9351 41.4595 25.0724 38.8479 25.0724C35.2163 25.0724 32.2628 22.3457 32.0768 18.8443H46.5306C48.1024 18.8443 48.8659 18.1094 48.8659 16.5983C48.8659 16.1534 48.8659 15.8324 48.7764 15.199C47.9978 9.57863 44.2033 6.22341 38.6253 6.22341L38.6249 6.22266ZM38.6249 9.73209C42.0951 9.73209 44.3219 11.9436 44.4592 15.513H32.0813C32.4063 12.2096 35.1992 9.73209 38.6247 9.73209H38.6249Z" fill="#8D8B8B"/>
<path d="M62.6676 6.22266C59.7604 6.22266 56.882 7.89432 55.7575 10.216V8.78121C55.7575 6.55841 54.0348 6.44581 53.6898 6.44581C52.669 6.44581 51.5781 7.05924 51.5781 8.78121V26.1115C51.5781 28.4197 53.4118 28.5364 53.7792 28.5364C54.1466 28.5364 55.9812 28.4197 55.9812 26.1115V16.8212C55.9812 12.779 58.2717 9.95571 61.5511 9.95571C64.7274 9.95571 66.272 12.0402 66.272 16.3292V26.1115C66.272 28.4197 68.1065 28.5364 68.4739 28.5364C68.8413 28.5364 70.675 28.4197 70.675 26.1115V14.9464C70.675 10.7293 68.5713 6.22397 62.6676 6.22397V6.22266Z" fill="#8D8B8B"/>
<path d="M90.597 6.44531C89.5796 6.44531 88.8417 7.03879 88.4023 8.20644L82.3783 23.3549L76.4003 8.20644C75.9323 7.02127 75.1999 6.44531 74.1608 6.44531C72.9469 6.44531 71.959 7.39253 71.959 8.5571C71.959 8.84536 71.9917 9.21915 72.2353 9.80298L79.1582 26.1496C79.9832 28.1216 81.3401 28.5354 82.3335 28.5354C83.3264 28.5354 84.6841 28.1216 85.5107 26.1505L92.4786 9.71304C92.7166 9.13643 92.7535 8.71308 92.7535 8.51269C92.7535 7.33464 91.8254 6.44559 90.597 6.44559V6.44531Z" fill="#8D8B8B"/>
<path d="M103.396 6.22183C100.58 6.22183 97.9569 7.00613 96.0114 8.42861C95.3516 8.88381 95.0306 9.45171 95.0306 10.1658C95.0306 11.149 95.7813 11.9197 96.7414 11.9197C97.1567 11.9197 97.6215 11.7543 98.0479 11.4556C99.7204 10.3407 101.292 9.82072 102.993 9.82072C106.249 9.82072 108.117 11.4764 108.117 14.3637V14.8421C100.81 14.8501 93.377 15.7326 93.377 22.0902C93.377 26.6658 97.2871 28.7145 101.162 28.7145C104.248 28.7145 106.713 27.4916 108.294 25.1762V26.2896C108.294 27.9477 109.408 28.5356 110.363 28.5356C110.564 28.5356 112.34 28.4725 112.34 26.2896V14.6308C112.34 9.3643 108.996 6.2207 103.395 6.2207L103.396 6.22183ZM107.191 18.0839H108.118V19.0982C108.118 22.8081 105.755 25.2049 102.101 25.2049C101.109 25.2049 97.8708 24.9741 97.8708 22.0006C97.8707 18.4896 103.19 18.0839 107.191 18.0839Z" fill="#8D8B8B"/>
<path d="M123.807 10.4466C125.734 10.4466 125.831 8.94748 125.831 8.64714C125.831 7.75576 125.299 6.80292 123.807 6.80292H119.846V2.79596C119.846 1.00607 118.685 0.371094 117.689 0.371094C117.322 0.371094 115.488 0.487728 115.488 2.79596V21.8237C115.488 26.2148 117.654 28.5358 121.753 28.5358C122.814 28.5358 123.847 28.3481 124.523 28.0334C125.297 27.6469 125.742 27.0111 125.742 26.2899C125.742 25.2724 125.003 24.5345 123.986 24.5345C123.79 24.5345 123.51 24.5832 123.202 24.6718C122.825 24.7661 122.569 24.8028 122.29 24.8028C120.622 24.8028 119.846 23.7142 119.846 21.3765V10.4447H123.807V10.4466Z" fill="#8D8B8B"/>
<path d="M138.366 6.22266C131.706 6.22266 126.875 10.9429 126.875 17.4458C126.875 20.6119 128.046 23.4975 130.17 25.5708C132.279 27.6274 135.189 28.76 138.366 28.76C144.942 28.76 149.902 23.896 149.902 17.446C149.902 10.943 145.049 6.22284 138.366 6.22284L138.366 6.22266ZM138.366 25.0266C133.799 25.0266 131.411 21.2127 131.411 17.4453C131.411 12.2683 135.016 9.91055 138.366 9.91055C141.715 9.91055 145.321 12.2683 145.321 17.4453C145.321 22.6544 141.715 25.0266 138.366 25.0266Z" fill="#8D8B8B"/>
</g>
<defs>
<clipPath id="clip0_2878_5212">
<rect width="150" height="28.5759" fill="white" transform="translate(0 0.277344)"/>
</clipPath>
</defs>
</svg>
