<svg width="52" height="53" viewBox="0 0 52 53" fill="none" xmlns="http://www.w3.org/2000/svg">
<rect y="0.806641" width="52" height="52" rx="8" fill="#008080"/>
<path d="M26.0007 40.974C33.8247 40.974 40.1673 34.6313 40.1673 26.8073C40.1673 18.9833 33.8247 12.6406 26.0007 12.6406C18.1766 12.6406 11.834 18.9833 11.834 26.8073C11.834 34.6313 18.1766 40.974 26.0007 40.974Z" stroke="white" stroke-width="2.125" stroke-linecap="round" stroke-linejoin="round"/>
<path d="M20.3329 14.0566H21.7496C18.9871 22.33 18.9871 31.2833 21.7496 39.5566H20.3329" stroke="white" stroke-width="2.125" stroke-linecap="round" stroke-linejoin="round"/>
<path d="M30.25 14.0566C33.0125 22.33 33.0125 31.2833 30.25 39.5566" stroke="white" stroke-width="2.125" stroke-linecap="round" stroke-linejoin="round"/>
<path d="M13.25 32.4733V31.0566C21.5233 33.8191 30.4767 33.8191 38.75 31.0566V32.4733" stroke="white" stroke-width="2.125" stroke-linecap="round" stroke-linejoin="round"/>
<path d="M13.25 22.5563C21.5233 19.7938 30.4767 19.7938 38.75 22.5563" stroke="white" stroke-width="2.125" stroke-linecap="round" stroke-linejoin="round"/>
</svg>
