<svg width="150" height="48" viewBox="0 0 150 48" fill="none" xmlns="http://www.w3.org/2000/svg">
<g clip-path="url(#clip0_2878_5198)">
<path d="M18.7634 16.8349V21.8554H30.8792C30.5575 24.6326 29.5926 26.769 28.0915 28.1576C26.376 29.8667 23.5883 31.7895 18.7634 31.7895C11.3653 31.7895 5.57541 25.8076 5.57541 18.4372C5.57541 11.0667 11.258 5.08491 18.7634 5.08491C22.7305 5.08491 25.7327 6.68718 27.8771 8.71673L31.4153 5.19173C28.4132 2.30764 24.3388 0.0644531 18.7634 0.0644531C8.57756 0.0644531 0 8.28945 0 18.4372C0 28.5849 8.57756 36.8099 18.7634 36.8099C24.2316 36.8099 28.4132 34.994 31.6297 31.6826C34.9535 28.3713 36.0257 23.6713 36.0257 19.9326C36.0257 18.7576 35.9185 17.6895 35.8113 16.8349H18.7634Z" fill="#8D8B8B"/>
<path d="M51.0359 12.6699C44.4955 12.6699 39.0273 17.6904 39.0273 24.5267C39.0273 31.3631 44.3883 36.3836 51.0359 36.3836C57.6835 36.3836 63.0445 31.4699 63.0445 24.6336C63.0445 17.6904 57.6835 12.6699 51.0359 12.6699ZM51.0359 31.7904C47.3905 31.7904 44.2811 28.7995 44.2811 24.6336C44.2811 20.3608 47.3905 17.4767 51.0359 17.4767C54.6814 17.4767 57.7907 20.3608 57.7907 24.6336C57.7907 28.7995 54.6814 31.7904 51.0359 31.7904Z" fill="#8D8B8B"/>
<path d="M109.685 15.3404H109.471C108.291 13.9517 106.04 12.6699 103.145 12.6699C97.1407 12.6699 91.9941 17.7972 91.9941 24.5267C91.9941 31.1495 97.1407 36.3836 103.145 36.3836C106.04 36.3836 108.291 35.1017 109.471 33.7131H109.685V35.4222C109.685 39.9086 107.219 42.3654 103.359 42.3654C100.143 42.3654 98.2129 40.1222 97.3551 38.0926L92.8519 40.0154C94.1385 43.1131 97.6768 47.0654 103.467 47.0654C109.578 47.0654 114.832 43.4336 114.832 34.6745V13.3108H109.9V15.3404H109.685ZM103.681 31.7904C100.036 31.7904 97.3551 28.6926 97.3551 24.6336C97.3551 20.4676 100.143 17.4767 103.681 17.4767C107.219 17.4767 110.007 20.5745 110.007 24.7404C110.114 28.7995 107.327 31.7904 103.681 31.7904Z" fill="#8D8B8B"/>
<path d="M77.7332 12.6699C71.1928 12.6699 65.7246 17.6904 65.7246 24.5267C65.7246 31.3631 71.0856 36.3836 77.7332 36.3836C84.3808 36.3836 89.7418 31.4699 89.7418 24.6336C89.7418 17.6904 84.3808 12.6699 77.7332 12.6699ZM77.7332 31.7904C74.0877 31.7904 70.9784 28.7995 70.9784 24.6336C70.9784 20.3608 74.0877 17.4767 77.7332 17.4767C81.3786 17.4767 84.488 20.3608 84.488 24.6336C84.488 28.7995 81.3786 31.7904 77.7332 31.7904Z" fill="#8D8B8B"/>
<path d="M118.799 0.597656H123.945V36.4886H118.799V0.597656Z" fill="#8D8B8B"/>
<path d="M139.814 31.7904C137.133 31.7904 135.31 30.6154 134.024 28.1586L150 21.6426L149.463 20.254C148.498 17.5836 145.389 12.6699 139.278 12.6699C133.166 12.6699 128.02 17.4767 128.02 24.5267C128.02 31.1495 133.059 36.3836 139.814 36.3836C145.282 36.3836 148.391 33.0722 149.785 31.1495L145.711 28.479C144.317 30.5086 142.494 31.7904 139.814 31.7904ZM139.492 17.1563C141.636 17.1563 143.459 18.2245 143.995 19.7199L133.273 24.2063C133.166 19.2926 136.812 17.1563 139.492 17.1563Z" fill="#8D8B8B"/>
</g>
<defs>
<clipPath id="clip0_2878_5198">
<rect width="150" height="47" fill="white" transform="translate(0 0.0644531)"/>
</clipPath>
</defs>
</svg>
