<svg width="24" height="24" viewBox="0 0 24 24" fill="none" xmlns="http://www.w3.org/2000/svg">
<path fill-rule="evenodd" clip-rule="evenodd" d="M1.82031 11.9602C1.82031 7.64599 1.82031 5.4889 2.84834 3.93522C3.30741 3.24142 3.90158 2.64725 4.59538 2.18819C6.14906 1.16016 8.30615 1.16016 12.6203 1.16016C16.9345 1.16016 19.0916 1.16016 20.6453 2.18819C21.339 2.64725 21.9332 3.24142 22.3923 3.93522C23.4203 5.4889 23.4203 7.64599 23.4203 11.9602C23.4203 16.2743 23.4203 18.4314 22.3923 19.9851C21.9332 20.6789 21.339 21.2731 20.6453 21.7321C19.0916 22.7602 16.9345 22.7602 12.6203 22.7602C8.30615 22.7602 6.14906 22.7602 4.59538 21.7321C3.90158 21.2731 3.30741 20.6789 2.84834 19.9851C1.82031 18.4314 1.82031 16.2743 1.82031 11.9602ZM18.2113 11.96C18.2113 15.048 15.708 17.5513 12.62 17.5513C9.53205 17.5513 7.02875 15.048 7.02875 11.96C7.02875 8.87207 9.53205 6.36876 12.62 6.36876C15.708 6.36876 18.2113 8.87207 18.2113 11.96ZM12.62 15.6597C14.6633 15.6597 16.3196 14.0033 16.3196 11.96C16.3196 9.91681 14.6633 8.26045 12.62 8.26045C10.5768 8.26045 8.92043 9.91681 8.92043 11.96C8.92043 14.0033 10.5768 15.6597 12.62 15.6597ZM18.4322 7.40165C19.1578 7.40165 19.746 6.81345 19.746 6.08786C19.746 5.36228 19.1578 4.77408 18.4322 4.77408C17.7066 4.77408 17.1184 5.36228 17.1184 6.08786C17.1184 6.81345 17.7066 7.40165 18.4322 7.40165Z" fill="white"/>
</svg>
