<svg width="208" height="208" viewBox="0 0 208 208" fill="none" xmlns="http://www.w3.org/2000/svg">
<g opacity="0.7" filter="url(#filter0_b_3194_3209)">
<circle cx="103.999" cy="103.632" r="103.632" fill="url(#paint0_linear_3194_3209)"/>
<circle cx="103.999" cy="103.632" r="102.347" stroke="url(#paint1_linear_3194_3209)" stroke-width="2.56938"/>
</g>
<circle cx="180.223" cy="47.9615" r="23.1245" stroke="white" stroke-width="8.56461"/>
<path d="M56.8531 115.683C55.0853 115.683 53.6259 115.231 52.4748 114.327C51.334 113.422 50.5221 112.199 50.0391 110.657L54.1706 109.671C54.2631 110.236 54.5612 110.729 55.0648 111.151C55.5684 111.562 56.1028 111.767 56.6681 111.767C57.0586 111.767 57.4749 111.66 57.9168 111.444C58.369 111.228 58.6927 110.884 58.888 110.411C59.0114 110.113 59.0833 109.748 59.1039 109.316C59.1244 108.885 59.1347 108.386 59.1347 107.821V93.0212H63.3896V107.821C63.3896 108.53 63.3844 109.147 63.3742 109.671C63.3742 110.195 63.3228 110.688 63.22 111.151C63.1275 111.603 62.9374 112.076 62.6496 112.569C62.0227 113.659 61.2056 114.45 60.1984 114.943C59.1912 115.437 58.0761 115.683 56.8531 115.683ZM75.4974 115.683C73.8222 115.683 72.3525 115.308 71.0883 114.558C69.8242 113.808 68.8376 112.775 68.1284 111.459C67.4295 110.133 67.0801 108.612 67.0801 106.896C67.0801 105.159 67.4398 103.633 68.1592 102.317C68.8787 100.991 69.8705 99.9586 71.1346 99.2186C72.3987 98.4786 73.853 98.1086 75.4974 98.1086C77.1726 98.1086 78.6423 98.4837 79.9065 99.234C81.1809 99.9843 82.1727 101.022 82.8818 102.348C83.591 103.664 83.9455 105.18 83.9455 106.896C83.9455 108.623 83.5858 110.149 82.8664 111.475C82.1573 112.79 81.1655 113.823 79.8911 114.573C78.6269 115.313 77.1624 115.683 75.4974 115.683ZM75.4974 111.767C76.8438 111.767 77.8458 111.315 78.5036 110.411C79.1716 109.496 79.5056 108.324 79.5056 106.896C79.5056 105.416 79.1665 104.234 78.4882 103.35C77.8201 102.466 76.8232 102.024 75.4974 102.024C74.5827 102.024 73.8324 102.23 73.2466 102.641C72.6608 103.052 72.224 103.623 71.9362 104.352C71.6587 105.082 71.52 105.93 71.52 106.896C71.52 108.386 71.854 109.573 72.5221 110.457C73.2004 111.331 74.1922 111.767 75.4974 111.767ZM87.644 96.2586V92.5587H91.8372V96.2586H87.644ZM87.644 115.221V98.5711H91.8372V115.221H87.644ZM107.805 115.221V107.358C107.805 106.978 107.785 106.495 107.744 105.909C107.703 105.313 107.574 104.717 107.358 104.121C107.143 103.525 106.788 103.026 106.295 102.626C105.812 102.225 105.123 102.024 104.229 102.024C103.869 102.024 103.484 102.081 103.073 102.194C102.662 102.307 102.276 102.528 101.916 102.857C101.557 103.175 101.259 103.648 101.022 104.275C100.796 104.902 100.683 105.735 100.683 106.773L98.2781 105.632C98.2781 104.316 98.5453 103.083 99.0798 101.932C99.6142 100.781 100.416 99.8506 101.485 99.1415C102.564 98.4323 103.92 98.0778 105.555 98.0778C106.86 98.0778 107.924 98.2987 108.746 98.7407C109.568 99.1826 110.205 99.7427 110.657 100.421C111.12 101.099 111.449 101.809 111.644 102.548C111.839 103.278 111.958 103.946 111.999 104.553C112.04 105.159 112.06 105.601 112.06 105.878V115.221H107.805ZM96.4282 115.221V98.5711H100.159V104.09H100.683V115.221H96.4282ZM131.267 115.683C129.479 115.683 127.906 115.323 126.55 114.604C125.193 113.874 124.134 112.852 123.374 111.536C122.613 110.221 122.233 108.674 122.233 106.896V93.0521L126.488 93.0212V106.865C126.488 107.595 126.611 108.258 126.858 108.854C127.105 109.45 127.444 109.964 127.876 110.395C128.317 110.827 128.826 111.161 129.402 111.397C129.988 111.624 130.609 111.737 131.267 111.737C131.945 111.737 132.572 111.618 133.148 111.382C133.734 111.146 134.242 110.812 134.674 110.38C135.106 109.948 135.44 109.434 135.676 108.838C135.923 108.242 136.046 107.584 136.046 106.865V93.0212H140.301V106.896C140.301 108.674 139.921 110.221 139.16 111.536C138.4 112.852 137.341 113.874 135.984 114.604C134.628 115.323 133.055 115.683 131.267 115.683ZM151.111 115.683C149.014 115.683 147.318 115.21 146.023 114.265C144.738 113.309 143.957 111.963 143.68 110.226L147.966 109.578C148.14 110.359 148.526 110.971 149.122 111.413C149.728 111.855 150.494 112.076 151.419 112.076C152.179 112.076 152.765 111.932 153.176 111.644C153.587 111.346 153.793 110.935 153.793 110.411C153.793 110.082 153.711 109.82 153.546 109.625C153.382 109.419 153.012 109.219 152.436 109.023C151.871 108.828 150.987 108.571 149.785 108.253C148.428 107.903 147.344 107.513 146.532 107.081C145.72 106.649 145.134 106.135 144.774 105.539C144.415 104.933 144.235 104.203 144.235 103.35C144.235 102.281 144.507 101.356 145.052 100.575C145.597 99.7838 146.362 99.1775 147.349 98.7561C148.346 98.3244 149.518 98.1086 150.864 98.1086C152.169 98.1086 153.325 98.309 154.333 98.7098C155.34 99.1107 156.152 99.6811 156.768 100.421C157.395 101.161 157.781 102.035 157.925 103.042L153.639 103.813C153.567 103.196 153.3 102.708 152.837 102.348C152.375 101.988 151.748 101.778 150.956 101.716C150.186 101.665 149.564 101.767 149.091 102.024C148.629 102.281 148.397 102.651 148.397 103.134C148.397 103.422 148.495 103.664 148.69 103.859C148.896 104.054 149.312 104.255 149.939 104.46C150.576 104.666 151.542 104.933 152.837 105.262C154.101 105.591 155.114 105.976 155.874 106.418C156.645 106.85 157.205 107.374 157.555 107.99C157.904 108.597 158.079 109.332 158.079 110.195C158.079 111.901 157.462 113.242 156.229 114.219C154.995 115.195 153.289 115.683 151.111 115.683Z" fill="white"/>
<defs>
<filter id="filter0_b_3194_3209" x="-85.279" y="-85.6461" width="378.558" height="378.556" filterUnits="userSpaceOnUse" color-interpolation-filters="sRGB">
<feFlood flood-opacity="0" result="BackgroundImageFix"/>
<feGaussianBlur in="BackgroundImageFix" stdDeviation="42.8231"/>
<feComposite in2="SourceAlpha" operator="in" result="effect1_backgroundBlur_3194_3209"/>
<feBlend mode="normal" in="SourceGraphic" in2="effect1_backgroundBlur_3194_3209" result="shape"/>
</filter>
<linearGradient id="paint0_linear_3194_3209" x1="51.7549" y1="2.27076e-06" x2="122.841" y2="217.969" gradientUnits="userSpaceOnUse">
<stop stop-color="#008080" stop-opacity="0.4"/>
<stop offset="1" stop-color="#008080" stop-opacity="0.4"/>
</linearGradient>
<linearGradient id="paint1_linear_3194_3209" x1="12.7859" y1="17.1292" x2="144.681" y2="226.962" gradientUnits="userSpaceOnUse">
<stop offset="0.183557" stop-color="white"/>
<stop offset="0.504834" stop-color="#999999" stop-opacity="0"/>
<stop offset="0.931415" stop-color="white"/>
</linearGradient>
</defs>
</svg>
