<svg width="23" height="22" viewBox="0 0 23 22" fill="none" xmlns="http://www.w3.org/2000/svg">
<path d="M1.01953 3.66402C1.01953 2.97137 1.26278 2.39994 1.74926 1.94974C2.23574 1.49952 2.86819 1.27441 3.64656 1.27441C4.41104 1.27441 5.02956 1.49605 5.50216 1.93935C5.98864 2.39649 6.23189 2.99215 6.23189 3.72636C6.23189 4.3913 5.9956 4.94539 5.52301 5.3887C5.03653 5.84584 4.39714 6.07441 3.60486 6.07441H3.58401C2.81952 6.07441 2.20101 5.84584 1.72841 5.3887C1.25582 4.93156 1.01953 4.35666 1.01953 3.66402ZM1.29057 21.8458V7.96532H5.91915V21.8458H1.29057ZM8.48362 21.8458H13.1122V14.0952C13.1122 13.6103 13.1678 13.2363 13.279 12.9731C13.4736 12.5021 13.769 12.1038 14.1651 11.7783C14.5612 11.4528 15.0581 11.29 15.6558 11.29C17.2126 11.29 17.991 12.3359 17.991 14.4277V21.8458H22.6195V13.8874C22.6195 11.8372 22.1331 10.2822 21.1601 9.22246C20.1871 8.16272 18.9014 7.63285 17.3029 7.63285C15.5099 7.63285 14.113 8.40168 13.1122 9.93935V9.9809H13.0913L13.1122 9.93935V7.96532H8.48362C8.51142 8.4086 8.52532 9.78695 8.52532 12.1004C8.52532 14.4138 8.51142 17.6623 8.48362 21.8458Z" fill="white"/>
</svg>
