<svg width="150" height="41" viewBox="0 0 150 41" fill="none" xmlns="http://www.w3.org/2000/svg">
<g clip-path="url(#clip0_2878_5209)">
<path d="M141.984 19.598L150 40.8145C147.65 40.4923 145.255 40.0321 142.859 39.6639L138.345 27.9281L133.692 38.6974C131.434 38.3292 129.177 38.1912 126.873 37.915L135.028 19.3679L127.657 0.314453H134.521L138.667 10.9457L143.09 0.314453H150L141.984 19.598ZM122.267 0.314453H116.047V37.0866C118.074 37.2247 120.193 37.3167 122.267 37.5468V0.314453ZM110.703 36.6724C105.037 36.3042 99.3704 35.936 93.6118 35.844V0.314453H99.9232V29.861C103.563 29.9531 107.202 30.2292 110.703 30.4133V36.6724ZM86.8397 14.7196V21.0247H78.1787V35.4298H71.9134V0.314453H89.6499V6.61957H78.1787V14.6735H86.8397V14.7196ZM61.2715 6.61957V35.752C59.1523 35.752 56.9871 35.752 54.914 35.844V6.61957H48.3722V0.314453H67.8593V6.61957H61.2715ZM41.5541 21.3468C38.7899 21.3468 35.473 21.3468 33.1235 21.4849V30.8735C36.855 30.5974 40.5405 30.3213 44.3182 30.1832V36.2582L26.812 37.6389V0.314453H44.3182V6.61957H33.1235V15.1338C35.5651 15.1338 39.3428 14.9957 41.5541 14.9957V21.3468ZM6.44963 17.8031V39.894C4.19226 40.1701 2.16523 40.4923 0 40.8145V0.314453H6.03501L14.2813 23.3258V0.314453H20.6388V38.1912C18.3814 38.5593 16.1241 38.6974 13.7285 39.0196L6.44963 17.8031Z" fill="#8D8B8B"/>
</g>
<defs>
<clipPath id="clip0_2878_5209">
<rect width="150" height="40.5" fill="white" transform="translate(0 0.314453)"/>
</clipPath>
</defs>
</svg>
