<svg width="150" height="36" viewBox="0 0 150 36" fill="none" xmlns="http://www.w3.org/2000/svg">
<g clip-path="url(#clip0_2878_5184)">
<path d="M27.1601 14.1389C27.1211 14.8124 26.8182 15.447 26.3004 15.8959L19.5296 21.7917C19.0607 22.2017 18.4646 22.4262 17.8394 22.4165C17.81 22.4165 17.7807 22.4165 17.7514 22.4165L17.4974 22.3969C16.9991 22.3287 16.5302 22.1041 16.1589 21.7625L12.241 18.2093C11.2738 17.3406 11.049 15.9643 11.6842 14.9295C12.4364 13.7289 14.0094 13.3677 15.2112 14.1194C15.3382 14.1974 15.4554 14.2951 15.5727 14.3927L16.8818 15.5738C17.4583 16.1009 18.3376 16.1107 18.9239 15.5933L22.8808 12.1476C23.6624 11.4643 24.7274 11.2788 25.6066 11.6595C26.6032 12.0695 27.2188 13.0651 27.1601 14.1389Z" fill="#8D8B8B"/>
<path d="M12.9947 34.4327C3.62513 31.9046 -1.92436 22.2896 0.615895 12.9871C3.15615 3.68459 12.8579 -1.83056 22.2276 0.697624C23.615 1.06855 24.4357 2.49371 24.0742 3.87982C23.7029 5.26592 22.2765 6.08588 20.8891 5.72471C20.8793 5.72471 20.8695 5.71494 20.8598 5.71494C14.2747 3.93839 7.46482 7.81363 5.67687 14.3537C3.88891 20.8938 7.78723 27.6487 14.3724 29.4252C20.9575 31.192 27.7674 27.3168 29.5553 20.7865C29.9363 19.3906 31.3824 18.5803 32.7697 18.9611C34.1473 19.3417 34.9679 20.767 34.6065 22.1432C32.0663 31.4458 22.3741 36.961 12.9947 34.4327Z" fill="#8D8B8B"/>
<path d="M45.1486 12.2449H40.625V9.60938H52.8768V12.2449H48.3533V25.5008H45.1486V12.2449Z" fill="#8D8B8B"/>
<path d="M55.3699 8.81836C56.4251 8.81836 57.1775 9.58949 57.1775 10.6144C57.1775 11.6394 56.4251 12.4106 55.3699 12.4106C54.3148 12.4106 53.5625 11.6394 53.5625 10.6144C53.5625 9.58949 54.3246 8.81836 55.3699 8.81836ZM53.8165 13.6893H56.9234V25.4907H53.8165V13.6893Z" fill="#8D8B8B"/>
<path d="M58.916 13.6893H61.8862V15.095C62.4821 14.0017 63.6253 13.416 65.3155 13.416C66.8494 13.416 68.0317 14.031 68.7448 15.095C69.6143 13.9822 70.9431 13.416 72.6724 13.416C75.1639 13.416 76.9225 15.095 76.9225 17.9355V25.4908H73.8156V18.4333C73.8156 17.0765 73.2 16.1003 71.6857 16.1003C70.3179 16.1003 69.4678 16.9203 69.4678 18.5017V25.4908H66.3609V18.4333C66.3609 17.0765 65.7453 16.1003 64.231 16.1003C62.8339 16.1003 62.0132 16.9203 62.0132 18.5017V25.4908H58.9062V13.6893H58.916Z" fill="#8D8B8B"/>
<path d="M78.2109 20.5027V18.8921C78.2109 15.6903 80.1357 13.4258 83.7017 13.4258C87.2191 13.4258 89.007 15.7587 89.007 18.5992V20.6686H81.2299V20.9615C81.2299 22.3476 81.9431 23.5482 83.7409 23.5482C85.0695 23.5482 85.8903 22.865 86.1834 22.0547H88.8995C88.4892 24.212 86.3592 25.7738 83.7311 25.7738C80.3798 25.764 78.2109 23.8118 78.2109 20.5027ZM81.2299 18.4821H86.1444V18.1892C86.1444 16.7153 85.3627 15.6025 83.7017 15.6025C81.9138 15.6025 81.2299 16.7836 81.2299 18.3748V18.4821Z" fill="#8D8B8B"/>
<path d="M90.1406 18.6873V16.4226C90.1406 12.3619 92.3095 9.29688 97.136 9.29688C101.181 9.29688 103.672 12.0203 103.838 15.2611H100.868C100.663 13.4649 99.52 11.9031 97.1459 11.9031C94.4689 11.9031 93.3257 13.7188 93.3257 16.2567V18.8435C93.3257 21.3814 94.4689 23.197 97.1459 23.197C99.52 23.197 100.663 21.6352 100.868 19.8391H103.838C103.682 23.0798 101.191 25.8033 97.136 25.8033C92.3095 25.813 90.1406 22.748 90.1406 18.6873Z" fill="#8D8B8B"/>
<path d="M104.844 22.0938C104.844 19.5266 106.788 18.3454 109.641 18.3454C111.058 18.3454 112.113 18.8921 112.66 19.3411V17.7304C112.66 16.6372 111.878 15.827 110.598 15.827C109.524 15.827 108.859 16.3053 108.537 16.9398H105.664C106.348 14.6459 108.205 13.4258 110.764 13.4258C113.734 13.4258 115.767 15.2218 115.767 17.9648V25.5004H112.767V24.4072C112.22 25.1978 110.706 25.764 109.338 25.764C106.671 25.764 104.844 24.3779 104.844 22.0938ZM112.66 21.9767C112.66 20.9322 111.634 20.3172 110.237 20.3172C108.771 20.3172 107.863 20.9029 107.863 21.9962C107.863 23.0895 108.85 23.7239 110.149 23.7239C111.517 23.7239 112.66 22.9723 112.66 21.9767Z" fill="#8D8B8B"/>
<path d="M117.577 13.6893H120.546V15.095C121.143 14.0017 122.285 13.416 123.976 13.416C125.51 13.416 126.692 14.031 127.406 15.095C128.275 13.9822 129.604 13.416 131.333 13.416C133.824 13.416 135.583 15.095 135.583 17.9355V25.4908H132.476V18.4333C132.476 17.0765 131.86 16.1003 130.346 16.1003C128.978 16.1003 128.128 16.9203 128.128 18.5017V25.4908H125.021V18.4333C125.021 17.0765 124.406 16.1003 122.891 16.1003C121.495 16.1003 120.674 16.9203 120.674 18.5017V25.4908H117.566V13.6893H117.577Z" fill="#8D8B8B"/>
<path d="M148.898 18.6188V20.571C148.898 23.4115 147.11 25.7641 143.915 25.7641C142.343 25.7641 141.13 25.1295 140.506 24.2218V29.4441H137.398V13.6893H140.369V15.095C140.965 14.1871 142.176 13.416 143.886 13.416C147.159 13.416 148.898 15.8271 148.898 18.6188ZM140.506 18.7555V20.4832C140.506 22.2793 141.698 23.275 143.114 23.275C144.872 23.275 145.792 22.0938 145.792 20.4344V18.7555C145.792 17.1936 144.941 15.9149 143.144 15.9149C141.561 15.9149 140.506 17.096 140.506 18.7555Z" fill="#8D8B8B"/>
</g>
<defs>
<clipPath id="clip0_2878_5184">
<rect width="150" height="34.9624" fill="white" transform="translate(0 0.0839844)"/>
</clipPath>
</defs>
</svg>
