<svg width="23" height="18" viewBox="0 0 23 18" fill="none" xmlns="http://www.w3.org/2000/svg">
<path d="M15.0536 0.203109V0.199219H16.0664L16.4364 0.273129C16.6831 0.321112 16.9071 0.383995 17.1084 0.461795C17.3097 0.539595 17.5044 0.630369 17.6927 0.734096C17.881 0.837824 18.0517 0.943515 18.205 1.05113C18.3569 1.15747 18.4932 1.27028 18.614 1.38956C18.7334 1.51015 18.9197 1.54128 19.1729 1.48292C19.4261 1.42457 19.6988 1.34353 19.991 1.2398C20.2831 1.13607 20.5721 1.01937 20.8577 0.889697C21.1434 0.760023 21.3174 0.677691 21.3797 0.642681C21.4407 0.606387 21.4732 0.586937 21.4771 0.584331L21.481 0.578496L21.5004 0.56877L21.5199 0.559045L21.5394 0.54932L21.5589 0.539595L21.5628 0.53376L21.5686 0.52987L21.5745 0.52598L21.5784 0.520145L21.5978 0.51431L21.6173 0.51042L21.6134 0.539595L21.6076 0.56877L21.5978 0.597946L21.5881 0.627121L21.5784 0.646571L21.5686 0.666021L21.5589 0.695196C21.5524 0.714646 21.5459 0.740573 21.5394 0.772996C21.5329 0.80542 21.4712 0.935074 21.3544 1.162C21.2375 1.38892 21.0914 1.61908 20.9161 1.85248C20.7408 2.08588 20.5837 2.26221 20.4448 2.38152C20.3046 2.50211 20.2117 2.58639 20.1663 2.63437C20.1208 2.68364 20.0657 2.72901 20.0007 2.77052L19.9033 2.83471L19.8839 2.84443L19.8644 2.85416L19.8605 2.85999L19.8546 2.86388L19.8488 2.86777L19.8449 2.87361L19.8254 2.88333L19.8059 2.89306L19.8021 2.89889L19.7962 2.90278L19.7904 2.90667L19.7865 2.91251L19.7826 2.91834L19.7767 2.92223L19.7709 2.92612L19.767 2.93196H19.8644L20.4097 2.81526C20.7733 2.73746 21.1206 2.64345 21.4518 2.53323L21.9776 2.35818L22.0361 2.33873L22.0653 2.329L22.0848 2.31928L22.1042 2.30955L22.1237 2.29983L22.1432 2.2901L22.1821 2.28427L22.2211 2.28038V2.31928L22.2114 2.32317L22.2016 2.329L22.1977 2.33484L22.1919 2.33873L22.186 2.34262L22.1821 2.34845L22.1783 2.35429L22.1724 2.35818L22.1666 2.36207L22.1627 2.3679L22.1588 2.37374L22.1529 2.37763L22.1432 2.39708L22.1334 2.41653L22.1276 2.42042C22.125 2.42431 22.0426 2.53451 21.8802 2.75107C21.7179 2.96891 21.6303 3.07912 21.6173 3.08172C21.6043 3.08561 21.5861 3.10506 21.5628 3.14007C21.5407 3.17637 21.4031 3.32096 21.1499 3.57381C20.8967 3.82666 20.6487 4.05162 20.4059 4.24873C20.1618 4.44712 20.0384 4.69089 20.0358 4.98005C20.0319 5.26791 20.017 5.59339 19.991 5.95645C19.965 6.31952 19.9163 6.71175 19.8449 7.13318C19.7735 7.5546 19.6631 8.03113 19.5138 8.56276C19.3645 9.09439 19.1827 9.61306 18.9684 10.1188C18.7542 10.6245 18.5302 11.0783 18.2965 11.4803C18.0628 11.8822 17.8485 12.2226 17.6537 12.5014C17.459 12.7802 17.261 13.0428 17.0597 13.2891C16.8584 13.5355 16.6039 13.813 16.2962 14.1216C15.9872 14.4289 15.8184 14.5975 15.7898 14.6273C15.7599 14.6558 15.6327 14.7622 15.408 14.9463C15.1847 15.1317 14.9445 15.3171 14.6874 15.5026C14.4316 15.6867 14.1966 15.8403 13.9823 15.9635C13.7681 16.0867 13.5097 16.2274 13.2071 16.3856C12.9059 16.5451 12.58 16.6929 12.2294 16.829C11.8788 16.9652 11.5087 17.0916 11.1192 17.2083C10.7297 17.325 10.3531 17.4158 9.98953 17.4806C9.62598 17.5455 9.21371 17.6006 8.75274 17.646L8.06131 17.714V17.7238H6.7953V17.714L6.62975 17.7043C6.51939 17.6978 6.42849 17.6913 6.35707 17.6849C6.28567 17.6784 6.01622 17.6427 5.54878 17.5779C5.08133 17.513 4.71452 17.4482 4.44833 17.3834C4.18215 17.3185 3.78611 17.1954 3.26023 17.0138C2.73435 16.8323 2.28443 16.6488 1.91047 16.4634C1.53782 16.2793 1.30409 16.1625 1.2093 16.1133C1.11581 16.0653 1.01063 16.0057 0.893772 15.9343L0.718479 15.8274L0.714603 15.8215L0.70874 15.8176L0.702897 15.8138L0.699002 15.8079L0.679525 15.7982L0.660048 15.7885L0.656172 15.7826L0.650309 15.7787L0.644466 15.7749L0.640571 15.769L0.636695 15.7632L0.630832 15.7593H0.621094V15.7204L0.640571 15.7243L0.660048 15.7301L0.747694 15.7398C0.806125 15.7463 0.965194 15.756 1.22488 15.769C1.48459 15.782 1.7605 15.782 2.05265 15.769C2.34481 15.756 2.64347 15.7269 2.9486 15.6815C3.25374 15.6361 3.61407 15.5583 4.02957 15.4481C4.44509 15.3379 4.82684 15.2069 5.17484 15.0552C5.52153 14.9022 5.76822 14.7881 5.91496 14.7129C6.06038 14.639 6.28242 14.5015 6.58106 14.3005L7.02903 13.9991L7.03292 13.9932L7.03877 13.9893L7.04463 13.9854L7.04851 13.9796L7.0524 13.9738L7.05824 13.9699L7.06411 13.966L7.06798 13.9602L7.08746 13.9543L7.10694 13.9504L7.11083 13.931L7.11668 13.9115L7.12254 13.9076L7.12641 13.9018L6.9706 13.8921C6.86673 13.8856 6.76609 13.8791 6.6687 13.8726C6.57132 13.8662 6.41876 13.837 6.21099 13.7851C6.00325 13.7332 5.77927 13.6554 5.53904 13.5517C5.29883 13.448 5.0651 13.3248 4.83787 13.1822C4.61065 13.0395 4.44638 12.9209 4.3451 12.8262C4.24512 12.7328 4.11527 12.6006 3.95556 12.4294C3.79715 12.257 3.65951 12.08 3.54264 11.8984C3.42578 11.7169 3.31412 11.5075 3.20766 11.2702L3.04598 10.9162L3.03624 10.887L3.0265 10.8579L3.02066 10.8384L3.01677 10.819L3.04598 10.8229L3.0752 10.8287L3.28944 10.8579C3.43229 10.8773 3.65627 10.8838 3.9614 10.8773C4.26655 10.8708 4.47754 10.8579 4.5944 10.8384C4.71127 10.819 4.78269 10.806 4.80865 10.7995L4.8476 10.7898L4.8963 10.7801L4.94499 10.7703L4.94888 10.7645L4.95473 10.7606L4.96059 10.7567L4.96447 10.7509L4.92551 10.7412L4.88656 10.7314L4.8476 10.7217L4.80865 10.712L4.7697 10.7023C4.74373 10.6958 4.69829 10.6828 4.63336 10.6634C4.56844 10.6439 4.39315 10.5726 4.10748 10.4494C3.82183 10.3262 3.59459 10.2063 3.42578 10.0896C3.25656 9.97255 3.0952 9.84455 2.94275 9.70642C2.79083 9.56638 2.62399 9.38614 2.44219 9.16571C2.26041 8.94528 2.09811 8.68918 1.95527 8.39743C1.81244 8.10568 1.70532 7.8269 1.6339 7.56108C1.56276 7.29682 1.51583 7.02665 1.49368 6.7539L1.4586 6.34545L1.47808 6.34934L1.49756 6.35517L1.51704 6.3649L1.53651 6.37462L1.55599 6.38435L1.57547 6.39407L1.87736 6.53022C2.07864 6.621 2.32858 6.6988 2.62723 6.76362C2.92589 6.82845 3.10441 6.86412 3.16284 6.8706L3.25049 6.88032H3.42578L3.42191 6.87449L3.41604 6.8706L3.4102 6.86671L3.40631 6.86087L3.40243 6.85504L3.39657 6.85115L3.39072 6.84726L3.38683 6.84142L3.36735 6.8317L3.34787 6.82197L3.344 6.81614L3.33814 6.81225L3.33229 6.80836L3.3284 6.80252L3.30892 6.7928L3.28944 6.78307L3.28557 6.77724C3.28167 6.77463 3.22583 6.73315 3.11805 6.65276C3.01156 6.57107 2.8999 6.4654 2.78304 6.33572C2.66618 6.20605 2.54932 6.0699 2.43246 5.92727C2.31538 5.78432 2.2111 5.63137 2.12082 5.47019C2.02994 5.30812 1.93384 5.10193 1.83256 4.85168C1.73259 4.60272 1.65663 4.35181 1.60468 4.09896C1.55276 3.84611 1.52354 3.59651 1.51704 3.35013C1.51055 3.10376 1.51704 2.89306 1.53651 2.71801C1.55599 2.54295 1.59494 2.34521 1.65338 2.12478C1.71181 1.90435 1.79622 1.67095 1.90658 1.42457L2.07213 1.05502L2.08187 1.02585L2.09161 0.996672L2.09747 0.992782L2.10135 0.986947L2.10524 0.981112L2.11108 0.977222L2.11695 0.981112L2.12082 0.986947L2.12472 0.992782L2.13056 0.996672L2.13642 1.00056L2.1403 1.0064L2.1442 1.01223L2.15004 1.01612L2.15978 1.03557L2.16952 1.05502L2.17538 1.05891L2.17925 1.06475L2.44219 1.3565C2.61749 1.551 2.82525 1.7682 3.06546 2.00808C3.30569 2.24796 3.43877 2.37244 3.46474 2.38152C3.49072 2.39189 3.52317 2.4217 3.56212 2.47099C3.60108 2.51897 3.73093 2.63373 3.95166 2.81526C4.17241 2.99678 4.46132 3.20751 4.81839 3.44738C5.17548 3.68726 5.57151 3.92391 6.00649 4.15731C6.44149 4.39071 6.90893 4.60142 7.40883 4.78944C7.90875 4.97746 8.25933 5.10064 8.46059 5.15899C8.66186 5.21734 9.00595 5.29189 9.49287 5.38267C9.9798 5.47344 10.3466 5.53179 10.5933 5.55772C10.84 5.58365 11.0088 5.59856 11.0997 5.60245L11.2361 5.60634L11.2322 5.57717L11.2263 5.54799L11.1874 5.30487C11.1614 5.14279 11.1484 4.91587 11.1484 4.62411C11.1484 4.33236 11.1711 4.06331 11.2166 3.81694C11.262 3.57056 11.3302 3.32096 11.4211 3.06811C11.512 2.81526 11.6009 2.61231 11.6879 2.45932C11.7762 2.30761 11.8918 2.1345 12.0346 1.94C12.1775 1.7455 12.3625 1.54452 12.5897 1.33705C12.817 1.12957 13.0766 0.944799 13.3688 0.782721C13.6609 0.620644 13.9304 0.497447 14.1771 0.41317C14.4238 0.328892 14.6316 0.273771 14.8004 0.247844C14.9692 0.221917 15.0536 0.206999 15.0536 0.203109Z" fill="white"/>
</svg>
