<svg width="26" height="19" viewBox="0 0 26 19" fill="none" xmlns="http://www.w3.org/2000/svg">
<path d="M13.7462 17.3364L8.8716 17.2453C7.2933 17.2135 5.71108 17.2769 4.16373 16.948C1.80985 16.4566 1.64309 14.0471 1.4686 12.026C1.22816 9.18458 1.32124 6.2916 1.77497 3.47391C2.03112 1.89289 3.03916 0.949487 4.59806 0.846826C9.86048 0.474256 15.1579 0.51841 20.4086 0.692227C20.9632 0.708161 21.5216 0.795253 22.0684 0.894386C24.7675 1.37789 24.8334 4.10836 25.0083 6.40691C25.1828 8.72918 25.1091 11.0634 24.7756 13.3698C24.5081 15.2795 23.9961 16.881 21.8357 17.0356C19.1288 17.2377 16.484 17.4005 13.7694 17.3486C13.7696 17.3364 13.754 17.3364 13.7462 17.3364ZM10.8804 12.5016C12.9203 11.3047 14.9213 10.1277 16.9495 8.93888C14.9058 7.74198 12.9086 6.56504 10.8804 5.37617V12.5016Z" fill="white"/>
</svg>
